<svg xmlns="http://www.w3.org/2000/svg" xmlns:xlink="http://www.w3.org/1999/xlink" width="851.632" height="673.581" viewBox="0 0 851.632 673.581"><defs><style>.a{fill:url(#a);}.b{fill:#52ffb2;opacity:0.15;}.c{opacity:0.2;}.d{fill:#57ffb4;}.e{fill:url(#b);}.f{opacity:0.22;mix-blend-mode:multiply;isolation:isolate;fill:url(#c);}.g,.h,.i{fill:none;stroke-miterlimit:10;stroke-width:3px;}.g,.h{stroke:#57ffb4;}.g,.i{stroke-linecap:round;stroke-linejoin:round;}.i{stroke:#333fbb;}</style><linearGradient id="a" x1="-2.961" y1="2.623" x2="4.006" y2="-1.894" gradientUnits="objectBoundingBox"><stop offset="0" stop-color="#57ffb4"/><stop offset="0.257" stop-color="#4dbbb5"/><stop offset="0.515" stop-color="#437eb5"/><stop offset="0.733" stop-color="#3d51b6"/><stop offset="0.901" stop-color="#3936b6"/><stop offset="1" stop-color="#372cb6"/></linearGradient><linearGradient id="b" x1="0.5" x2="0.5" y2="1" gradientUnits="objectBoundingBox"><stop offset="0" stop-color="#360033"/><stop offset="1" stop-color="#0b8793"/></linearGradient><linearGradient id="c" x1="0.398" y1="1.02" x2="4.927" y2="-1.915" xlink:href="#b"/></defs><g transform="translate(93.427 288.284) rotate(-8)"><path class="a" d="M307.651,295.955a36.883,36.883,0,1,1-29.8-42.811A36.9,36.9,0,0,1,307.651,295.955Z" transform="translate(264.287 -46.336)"/><path class="b" d="M497.006,1.715A256.921,256.921,0,0,0,376.492,50.632c-21.555,16.2-49.092,26.328-75.048,26.8A230.419,230.419,0,0,0,268.839,80.4C181.71,94.665,103.335,157.5,90.3,223.695a95.74,95.74,0,0,0-1.774,23.18c1.37,27.517-12.2,57.741-39.485,83.145-24.92,23.3-42.08,50.773-47.432,78.993-12.541,67.662,49.6,115.25,138.351,105.656,91.538-9.8,175.65-75.168,186.971-144.347a103.547,103.547,0,0,0,1.314-17c-.5-27.208,15.178-56.862,42.673-81.318A213.665,213.665,0,0,0,389.8,253.079c19.5,4.235,41.542,5.228,65.527,2.222,93.691-11.744,178.947-79.616,188.391-150.786C652.859,36.3,587.324-9.606,497.006,1.715Z" transform="translate(88.421 -278.691) rotate(24)"/><path class="c" d="M211.208,391.293a116.948,116.948,0,0,0,35.619-4.624c34.249-9.932,70.724-4.795,101.891,12.33a159.229,159.229,0,0,0,76.889,19.522c87.164-.342,158.573-71.581,158.744-158.744.171-89.048-72.266-160.8-160.971-159.772a158,158,0,0,0-91.445,30.139,140.914,140.914,0,0,1-102.062,25.516,114.5,114.5,0,0,0-17.3-1.027A118.321,118.321,0,0,0,95.617,276.045C97.158,338.721,148.532,389.923,211.208,391.293Z" transform="translate(107.459 -94.365)"/><path class="d" d="M320.845,250.84a4.167,4.167,0,1,1,4.795-3.425A4.067,4.067,0,0,1,320.845,250.84Z" transform="translate(265.478 -2.847)"/><path class="e" d="M5,191.047a5.983,5.983,0,1,1,6.85-4.966A6,6,0,0,1,5,191.047Z" transform="translate(-7.291 -17.965)"/><path class="f" d="M56.511,0A56.511,56.511,0,1,1,0,56.511,56.511,56.511,0,0,1,56.511,0Z" transform="translate(-1.11 138.883)"/><g transform="translate(65.308 -94.181)"><path class="g" d="M80.1,226.049A90.406,90.406,0,0,0,61.775,286.67a89.069,89.069,0,0,0,13.141,41.376A91.384,91.384,0,0,0,148.6,371.608h3.6a91.031,91.031,0,0,0,82.54-53.086,13.411,13.411,0,0,1,12.5-8.22h1.027a184.017,184.017,0,0,0,52.915-7.706" transform="translate(38.457 69.055)"/><path class="g" d="M161.613,42.782a122.2,122.2,0,0,0-27.4-3.082c-1.884,0-3.939,0-5.822.171A120.83,120.83,0,0,0,14,152.893a105.391,105.391,0,0,0,.171,16.44" transform="translate(-13.017 -23.438)"/></g><path class="e" d="M605.432,114.71C538.01,75.835,468.045,77.888,417.161,102.827a33.964,33.964,0,0,1-29.44-.44C359.916,87.864,326.841,79.5,291.4,79.5a220.978,220.978,0,0,0-48.885,5.428c-9.086,2.054-18.9,0-25.079-5.721-35.619-32.273-99.406-43.716-160.1-8.949a31.041,31.041,0,0,0-8,6.455C-5.9,139.5,32.986,206.542,99.5,224.146c8.178,2.2,13.993,8.215,15.083,15.257a126.8,126.8,0,0,0,23.443,56.625c2.726,3.814,1.817,8.508-2.181,11.442-27.986,20.684-37.8,57.212-7.269,91.979a21.846,21.846,0,0,0,6,4.841c57.426,32.86,118.669,8.068,132.117-32.567,1.09-3.374,5.088-5.574,9.45-5.281,5.088.293,10.359.587,15.447.587,45.069,0,86.139-13.5,117.4-35.647,8.541-6.015,20.717-7.628,31.257-4.254a188.5,188.5,0,0,0,57.608,8.949c120.3,0,208.806-110.317,118.669-212.418A49.649,49.649,0,0,0,605.432,114.71Z" transform="translate(66.005 -90.778)"/><circle class="h" cx="24.831" cy="24.831" r="24.831" transform="translate(506.942 263.494) rotate(-80.782)"/><circle class="i" cx="24.831" cy="24.831" r="24.831" transform="translate(14.418 177.078) rotate(-80.782)"/><circle class="c" cx="100.179" cy="100.179" r="100.179" transform="translate(25.386 -20.538)"/></g></svg>